# xmcd
#
# Track frame offsets:
#	150
#	19370
#	36018
#	53498
#	68007
#	88510
#	105631
#	120398
#	135747
#	150470
#	164182
#	177381
#	188609
#
# Disc length: 2768 seconds
#
# Revision: 1
# Processed by: cddbd v1.4PL0 Copyright (c) Steve Scherf et al.
# Submitted via: audiograbber 1.80.04
#
DISCID=a40ace0d
DTITLE=Bjørn Berge - Illustrated Man
DYEAR=2002
DGENRE=Blues
TTITLE0=Cypress Grove
TTITLE1=Funky Face
TTITLE2=Angel Band
TTITLE3=Give it Away
TTITLE4=Some Day
TTITLE5=Wishful Thinking
TTITLE6=Heather
TTITLE7=Travelling Riverside Blues
TTITLE8=Damn
TTITLE9=Locomotive Breath
TTITLE10=One Meat Ball
TTITLE11=Illustrated Man
TTITLE12=Ride On
EXTD=
EXTT0=
EXTT1=
EXTT2=
EXTT3=
EXTT4=
EXTT5=
EXTT6=
EXTT7=
EXTT8=
EXTT9=
EXTT10=
EXTT11=
EXTT12=
PLAYORDER=
